<svg width="265" height="334" viewBox="0 0 265 334" fill="none" xmlns="http://www.w3.org/2000/svg">
<g opacity="0.1">
<path d="M235.533 171.883C235.481 171.883 235.433 171.883 235.381 171.883C231.943 171.935 228.653 173.772 226.112 177.062C222.107 182.249 219.654 188.399 217.279 194.345C213.741 203.214 210.399 211.595 202.334 216.685C200.93 217.571 199.452 218.401 197.955 219.242C193.372 221.816 188.626 224.48 185.355 228.952C182.773 232.479 182.002 235.672 183.061 238.444C184.295 241.663 187.815 243.908 193.52 245.112C197.484 245.95 201.467 246.676 205.398 247.398C207.647 247.81 209.881 248.217 212.085 248.643C216.964 249.58 220.806 252.129 224.874 254.826C226.23 255.727 227.612 256.642 229.068 257.527C240.312 264.381 244.124 278.208 247.488 290.408L248.226 293.108C249.726 298.762 252.179 308.22 261.296 306.82C266.298 306.046 267.806 302.359 269.014 299.403C271.114 294.264 271.574 288.366 270.373 281.872C269.017 274.484 267.417 266.723 264.134 260.202C263.33 258.605 262.5 257.042 261.671 255.486C259.303 251.048 257.073 246.857 255.632 242.134C251.497 228.611 249.411 213.188 249.911 199.813C250.234 191.003 250.074 183.186 244.773 176.729C242.202 173.602 238.923 171.883 235.533 171.883ZM259.633 303.252C255.135 303.252 253.468 298.417 251.805 292.16L251.064 289.43C247.514 276.563 243.495 261.984 230.995 254.367C229.583 253.508 228.242 252.615 226.923 251.744C222.536 248.836 218.394 246.087 212.789 245.009C210.574 244.583 208.332 244.171 206.068 243.76C202.171 243.049 198.222 242.323 194.291 241.496C190.015 240.596 187.259 239.044 186.526 237.128C185.944 235.606 186.555 233.594 188.345 231.149C191.145 227.322 195.528 224.862 199.77 222.48C201.323 221.609 202.856 220.746 204.312 219.827C213.397 214.092 217.12 204.756 220.725 195.723C223.003 190.014 225.36 184.112 229.046 179.333C230.909 176.921 233.121 175.628 235.44 175.591C235.474 175.591 235.507 175.591 235.533 175.591C237.797 175.591 240.06 176.829 241.916 179.089C246.403 184.553 246.522 191.359 246.214 199.687C245.703 213.455 247.844 229.326 252.094 243.227C253.642 248.295 256.065 252.841 258.407 257.238C259.225 258.768 260.04 260.306 260.833 261.877C263.89 267.96 265.424 275.425 266.735 282.553C267.806 288.34 267.42 293.538 265.587 298.01C264.253 301.281 263.386 302.756 260.726 303.171C260.344 303.223 259.981 303.252 259.633 303.252ZM230.031 206.93C222.914 206.93 214.575 213.266 212.637 219.264C210.948 224.502 212.774 230.634 213.641 233.027C216.416 240.689 223.452 245.59 229.661 249.914L232.236 251.74C235.711 254.289 240.964 258.146 244.958 256.153C246.762 255.253 247.822 253.682 248.022 251.611C248.348 248.169 246.24 243.945 244.547 240.555C243.921 239.303 243.332 238.121 243.124 237.455C241.75 233.001 240.92 227.222 240.468 223.158C240.397 222.543 240.342 221.891 240.283 221.209C239.831 216.015 239.212 208.898 232.628 207.238C231.787 207.03 230.917 206.93 230.031 206.93ZM216.16 220.401C217.791 215.363 226.26 209.476 231.721 210.832C235.451 211.773 236.115 216.044 236.589 221.531C236.652 222.242 236.707 222.928 236.782 223.569C237.252 227.792 238.119 233.82 239.582 238.551C239.875 239.507 240.505 240.759 241.227 242.212C242.631 245.023 244.554 248.877 244.328 251.259C244.25 252.052 243.954 252.511 243.306 252.837C241.331 253.793 236.496 250.266 234.425 248.747L231.776 246.868C225.737 242.667 219.498 238.318 217.124 231.764C215.59 227.529 215.231 223.28 216.16 220.401Z" fill="white"/>
<path d="M151.795 167.495C149.68 167.495 148.224 168.336 147.249 169.31C146.823 169.736 146.438 170.237 146.112 170.8C144.163 174.13 146.267 177.883 147.805 180.625C148.275 181.466 148.724 182.251 149.002 182.952C149.85 185.082 149.631 187.683 149.424 190.194C149.065 194.537 148.653 199.464 154.003 202.043C157.638 203.799 161.78 203.662 165.366 201.665C168.93 199.683 171.308 196.156 171.727 192.236C172.675 183.307 165.992 174.138 159.22 170.04C156.122 168.173 153.692 167.495 151.795 167.495ZM149.865 171.93C151.528 170.274 154.826 171.711 157.3 173.212C163.176 176.764 168.804 184.708 168.044 191.843C167.752 194.566 166.077 197.03 163.565 198.43C161.042 199.831 158.149 199.934 155.615 198.708C152.695 197.3 152.751 194.926 153.118 190.502C153.347 187.701 153.614 184.526 152.447 181.584C152.117 180.751 151.595 179.81 151.039 178.813C149.817 176.639 148.435 174.167 149.313 172.671C149.476 172.378 149.657 172.137 149.865 171.93Z" fill="white"/>
<path d="M135.549 152.342C135.363 152.342 135.182 152.35 135.008 152.361C132.674 152.535 131.099 153.854 130.695 155.98C129.48 162.364 131.744 167.958 133.93 173.371C135.582 177.461 137.145 181.321 137.253 185.434C137.334 188.531 135.567 192.284 133.859 195.911C131.74 200.412 129.547 205.066 130.532 209.211C131.518 213.361 134.296 216.147 138.568 217.262C147.852 219.707 163.413 213.416 172.523 203.547C179.062 196.467 181.3 188.672 178.828 181.599C176.476 174.856 146.526 152.342 135.549 152.342ZM134.137 208.352C133.452 205.469 135.367 201.409 137.212 197.486C139.105 193.466 141.065 189.309 140.958 185.334C140.832 180.554 139.068 176.198 137.364 171.981C135.286 166.839 133.322 161.986 134.333 156.673C134.393 156.362 134.437 156.121 135.282 156.058C143.655 155.302 173.479 177.516 175.335 182.822C178.028 190.539 173.023 197.545 169.803 201.035C161.649 209.863 147.482 215.78 139.509 213.679C136.564 212.905 134.808 211.164 134.137 208.352Z" fill="white"/>
<path d="M129.176 -2.70831L126.487 -0.159393C130.347 3.91592 133.522 8.49881 134.452 10.0845C137.227 14.8044 141.543 25.2298 138.023 30.8797C136.582 33.1915 135.111 34.4845 134.03 34.3437C130.932 34.1399 127.335 26.2042 125.186 21.4583C124.056 18.965 123.082 16.8124 122.178 15.4713C121.396 14.3043 120.429 13.0483 119.407 11.7183C116.254 7.62817 112.686 2.99341 112.801 -1.38199L109.096 -1.48203C108.944 4.20859 113.116 9.62506 116.469 13.9782C117.439 15.2379 118.358 16.4308 119.099 17.5349C119.829 18.6241 120.792 20.7433 121.807 22.9884C124.931 29.8794 128.469 37.6929 133.781 38.0411C136.416 38.1967 138.909 36.4628 141.165 32.8432C145.615 25.7003 141.047 13.9967 137.646 8.20981C136.46 6.18695 133.115 1.4411 129.176 -2.70831ZM161.379 -2.2934L158.096 -0.570618C160.423 3.86407 162.583 8.72849 162.646 14.2154C162.694 18.424 162.579 21.9918 161.879 25.7151C160.186 34.729 157.381 41.331 153.302 45.9027C152.361 46.9586 151.242 47.9182 150.06 48.9333C148.16 50.5634 146.196 52.2528 144.803 54.5017C144.218 55.4501 143.721 56.3059 143.255 57.121C142.065 59.1883 141.124 60.8221 139.272 62.8968C131.518 71.5624 128.428 78.4978 129.821 84.1032C131.151 89.4567 134.967 93.2838 138.657 96.985C140.517 98.8522 142.277 100.612 143.662 102.509C147.045 107.136 146.307 110.182 145.192 114.794C144.84 116.25 144.474 117.784 144.211 119.466C141.71 135.567 158.007 148.282 165.128 153.006C181.025 163.546 190.028 174.034 191.888 184.182C193.048 190.517 191.384 196.867 186.942 203.054C184.241 206.811 181.64 208.715 177.976 211.197C176.168 212.424 174.883 214.039 173.642 215.599C172.356 217.214 171.141 218.74 169.489 219.611C168.751 220 168.077 219.989 167.147 219.989C166.28 219.974 165.302 219.974 164.205 220.322C162.438 220.878 160.975 222.001 159.56 223.09C158.659 223.779 157.811 224.427 156.974 224.865C155.384 225.691 153.584 226.391 151.676 227.132C147.6 228.718 143.392 230.355 140.465 233.512C137.853 236.331 136.945 239.973 137.975 243.492C139.046 247.149 142.11 250.046 145.97 251.054C148.893 251.817 151.868 251.888 154.743 251.958C158.926 252.058 162.875 252.154 166.236 254.34C167.31 255.037 168.344 255.811 169.381 256.585C172.949 259.249 176.698 261.935 181.77 261.905C184.764 261.846 187.453 260.768 190.058 259.723C191.762 259.042 193.374 258.397 195 258.056C204.692 256.044 216.036 263.154 224.839 269.593C225.617 270.16 226.447 270.738 227.295 271.327C232.593 274.998 238.069 278.796 236.928 284.768C235.297 293.304 234.501 300.465 240.21 308.446C247.857 319.141 257.16 324.365 269.478 324.888C280.356 325.332 289.959 318.534 293.019 308.32C295.075 301.462 295.056 291.818 292.982 283.749C290.718 274.939 284.779 268.47 279.037 262.213C277.121 260.127 275.143 257.967 273.365 255.785C269.871 251.484 266.574 246.853 266.17 242.118C265.629 235.857 265.618 229.344 265.599 223.045C265.584 217.722 265.57 212.22 265.244 206.822C265.114 204.64 265.166 202.272 265.229 199.768C265.336 195.222 265.447 190.521 264.425 186.412C263.436 182.444 260.92 179.877 258.482 177.395C256.678 175.557 254.978 173.827 254.007 171.615C250.806 164.335 256.285 159.267 262.091 153.91C264.44 151.739 266.651 149.69 268.3 147.467C270.73 144.181 271.042 143.758 274.398 143.184C279.296 142.336 283.638 141.369 287.143 138.009C292.17 133.177 294.056 125.594 295.353 118.117L295.582 116.709C296.083 113.527 296.183 112.864 298.809 112.156C300.376 111.734 302.129 111.741 303.963 111.749C305.737 111.771 307.56 111.767 309.368 111.386C325.551 107.996 333.52 94.1693 336.828 86.2261L333.405 84.7998C330.378 92.0686 323.132 104.717 308.612 107.759C307.182 108.055 305.626 108.066 303.978 108.04C301.977 108.048 299.887 108.025 297.842 108.581C292.9 109.915 292.448 112.801 291.922 116.135L291.703 117.484C290.518 124.341 288.836 131.247 284.579 135.334C281.834 137.968 278.059 138.794 273.768 139.531C268.948 140.365 267.963 141.699 265.321 145.266C263.884 147.208 261.794 149.145 259.579 151.19C253.688 156.636 246.356 163.409 250.617 173.112C251.862 175.942 253.885 178.002 255.841 179.995C258.027 182.222 260.09 184.323 260.835 187.312C261.735 190.939 261.631 195.389 261.531 199.687C261.472 202.158 261.413 204.714 261.554 207.048C261.872 212.342 261.887 217.788 261.902 223.06C261.92 229.436 261.939 236.027 262.487 242.44C262.98 248.172 266.629 253.366 270.501 258.127C272.349 260.398 274.365 262.598 276.317 264.725C282.001 270.916 287.365 276.766 289.399 284.679C291.289 292.029 291.322 301.106 289.477 307.264C286.943 315.714 278.551 321.538 269.641 321.194C258.553 320.723 250.158 315.989 243.222 306.297C238.361 299.502 239.058 293.378 240.569 285.472C242.166 277.129 235.09 272.227 229.41 268.289C228.584 267.718 227.78 267.159 227.025 266.611C217.607 259.72 205.351 252.102 194.241 254.436C192.299 254.84 190.458 255.578 188.68 256.289C186.283 257.252 184.011 258.156 181.696 258.204C177.661 258.241 174.801 256.018 171.597 253.621C170.496 252.799 169.392 251.977 168.251 251.236C164.009 248.483 159.345 248.368 154.832 248.261C152.046 248.194 149.412 248.127 146.904 247.475C144.296 246.797 142.24 244.874 141.532 242.459C140.876 240.217 141.476 237.876 143.181 236.035C145.526 233.501 149.334 232.022 153.017 230.589C154.932 229.844 156.914 229.073 158.678 228.158C159.808 227.573 160.827 226.791 161.812 226.035C163.027 225.105 164.176 224.224 165.317 223.864C165.858 223.694 166.436 223.683 167.125 223.701C168.259 223.701 169.655 223.716 171.211 222.897C173.553 221.667 175.072 219.759 176.539 217.918C177.658 216.514 178.714 215.188 180.051 214.28C183.923 211.657 186.901 209.475 189.95 205.233C195.004 198.193 196.882 190.891 195.534 183.53C193.481 172.352 183.941 161.049 167.177 149.931C162.083 146.556 145.641 134.426 147.875 120.055C148.119 118.48 148.467 117.047 148.797 115.683C149.957 110.882 151.053 106.351 146.656 100.338C145.103 98.2113 143.162 96.2625 141.284 94.3841C137.797 90.8868 134.5 87.5858 133.418 83.2252C132.359 78.9647 135.26 72.9591 142.036 65.3828C144.148 63.0228 145.277 61.0629 146.47 58.9882C146.922 58.2028 147.397 57.3766 147.956 56.4689C149.049 54.7054 150.716 53.2754 152.48 51.7601C153.702 50.7079 154.966 49.6224 156.07 48.385C160.612 43.2945 163.705 36.1072 165.521 26.4079C166.321 22.1511 166.391 18.0128 166.351 14.182C166.28 7.88379 163.798 2.31912 161.379 -2.2934ZM333.716 124.338C330.875 127.598 327.618 130.703 323.458 134.115C318.156 138.468 314.003 141.762 308.838 144.536L307.09 145.474C297.027 150.849 289.084 155.099 284.801 167.662C280.937 179.002 280.793 191.462 281.163 202.154C281.478 211.164 284.994 217.833 288.573 223.894C290.577 227.291 292.552 230.637 295.49 233.289C300.562 237.861 306.552 240.062 312.347 242.185C314.825 243.096 317.389 244.037 319.834 245.152C324.269 247.171 327.055 250.413 328.111 254.785C329.845 261.961 326.484 270.397 322.379 275.58L321.909 276.176C317.752 281.426 313.458 286.854 310.32 292.744C308.064 296.979 307.067 301.792 306.1 306.449L305.611 308.79C304.641 313.284 302.618 316.181 299.821 320.186L298.757 321.698C296.683 324.632 294.334 327.959 293.634 331.66L297.272 332.349C297.82 329.441 299.832 326.592 301.781 323.839L302.855 322.309C305.674 318.278 308.108 314.796 309.235 309.572L309.731 307.204C310.643 302.803 311.584 298.254 313.592 294.489C316.57 288.895 320.764 283.601 324.814 278.481L325.288 277.881C330.967 270.701 333.49 261.29 331.708 253.918C330.393 248.461 326.814 244.267 321.364 241.785C318.793 240.614 316.163 239.647 313.618 238.713C307.905 236.616 302.507 234.634 297.965 230.54C295.445 228.273 293.704 225.313 291.855 222.182C287.584 214.947 285.12 209.408 284.861 202.032C284.501 191.677 284.631 179.636 288.306 168.862C292.111 157.685 298.761 154.128 308.831 148.749L310.583 147.808C316.47 144.644 321.431 140.576 325.803 136.986C330.119 133.44 333.52 130.199 336.502 126.783L333.716 124.338Z" fill="white"/>
<path d="M190.457 -1.51588L186.759 -1.34915C186.959 3.12628 186.203 8.14632 184.447 13.9962C175.474 43.8312 161.918 88.9227 176.515 125.675C182.532 140.824 199.196 155.943 218.176 154.243C238.66 152.368 244.781 133.614 249.701 118.539L250.375 116.476C254.998 102.442 264.598 97.2882 275.712 91.3198C279.476 89.3006 283.363 87.2148 287.327 84.6585C297.137 78.3417 303.632 68.1868 309.911 58.3653C313.287 53.0896 316.776 47.6361 320.744 42.8124C326.061 36.3697 331.277 29.4158 336.601 22.2654L333.626 20.05C328.332 27.1632 323.145 34.0764 317.884 40.4561C313.772 45.4502 310.223 51.0038 306.792 56.3721C300.446 66.2936 294.455 75.6631 285.322 81.5464C281.481 84.0175 277.661 86.07 273.96 88.0558C262.638 94.1354 251.946 99.8742 246.863 115.316L246.181 117.391C241.361 132.158 235.9 148.897 217.843 150.549C200.682 152.12 185.488 138.201 179.965 124.304C165.842 88.7486 179.175 44.4055 187.997 15.0595C189.871 8.80579 190.679 3.3856 190.457 -1.51588Z" fill="white"/>
<path d="M319.713 -1.92305C319.38 -0.696747 319.072 0.536972 318.769 1.76698C318.461 3.0118 318.154 4.24921 317.817 5.46069C316.257 11.1291 314.83 15.8861 311.918 21.1432C309.91 24.7703 308.221 28.8345 306.587 32.7653C303.546 40.086 300.396 47.655 295.043 52.9121C291.875 56.0205 287.919 58.3508 283.732 60.8183C280.909 62.4817 277.99 64.2008 275.344 66.1791C273.114 67.8463 270.995 69.6839 268.942 71.4622C265.901 74.0964 262.755 76.8194 259.295 78.9349C253.245 82.6397 247.154 85.2109 240.704 87.9339C234.221 90.6718 233.48 94.8027 232.761 98.7891C232.424 100.679 232.072 102.631 231.109 104.65C228.1 110.941 223.888 113.619 217.09 113.594C203.067 113.549 192.608 104.276 191.059 90.5162C189.111 73.1516 188.718 57.558 189.9 44.1724C190.496 37.3815 192.979 31.9021 195.602 26.1003C196.506 24.0997 197.428 22.0583 198.306 19.9058C201.366 12.3961 200.985 4.00471 200.118 -1.70815L196.457 -1.15984C197.25 4.09731 197.617 11.7737 194.875 18.5091C194.016 20.6135 193.108 22.6103 192.223 24.5739C189.466 30.672 186.858 36.4294 186.206 43.8464C185.006 57.4802 185.399 73.3221 187.373 90.9274C189.144 106.651 201.077 117.247 217.075 117.295C217.108 117.295 217.141 117.295 217.171 117.295C225.359 117.295 230.849 113.783 234.45 106.247C235.629 103.776 236.044 101.475 236.407 99.4411C237.073 95.7474 237.511 93.3059 242.142 91.346C248.432 88.6897 254.938 85.9407 261.222 82.0951C264.941 79.824 268.205 76.9935 271.358 74.2631C273.359 72.5292 275.433 70.7361 277.556 69.1467C280.035 67.2906 282.869 65.6234 285.603 64.0081C289.797 61.537 294.135 58.9844 297.629 55.5537C303.516 49.7705 306.813 41.8532 309.999 34.1879C311.667 30.1756 313.245 26.3893 315.153 22.9401C318.265 17.3236 319.754 12.3591 321.384 6.44617C321.725 5.20135 322.04 3.93432 322.359 2.65985C322.655 1.45949 322.955 0.255424 323.281 -0.944946L319.713 -1.92305Z" fill="white"/>
<path d="M211.207 -1.4632L207.502 -1.40389C207.568 2.61955 207.409 6.7319 207.257 10.7146C207.12 14.2416 206.987 17.7649 206.994 21.2771C207.002 23.5889 207.05 25.897 207.098 28.2088C207.187 32.6287 207.287 37.2041 207.061 41.6647C206.979 43.2801 207.005 45.0028 207.039 46.7626C207.098 50.134 207.157 53.6276 206.379 56.447C206.038 57.6844 205.29 59.3182 204.49 61.0447C202.4 65.5942 200.025 70.744 202.048 74.697C203.126 76.8014 205.294 78.1832 208.487 78.8057C217.338 80.521 228.245 78.9316 237.748 77.1496C243.331 76.1011 245.817 75.023 249.522 70.7032C252.301 67.4615 255.739 65.057 259.373 62.5081C261.611 60.941 263.919 59.3257 266.068 57.4918C271.184 53.1275 276.082 48.0667 280.62 42.4465C282.169 40.5274 283.718 38.6675 285.248 36.8336C293.002 27.5308 300.323 18.7467 304.016 6.49108C304.802 3.87918 305.213 1.2191 305.235 -1.41503L301.53 -1.45206C301.508 0.833817 301.152 3.14561 300.471 5.42038C296.992 16.9498 289.901 25.4561 282.399 34.4589C280.857 36.3113 279.294 38.1859 277.738 40.1124C273.34 45.5585 268.605 50.4526 263.663 54.665C261.648 56.384 259.414 57.9512 257.25 59.4665C253.586 62.0339 249.792 64.6866 246.706 68.2877C243.661 71.8406 241.912 72.5927 237.063 73.504C227.901 75.2194 217.427 76.7606 209.195 75.1601C207.172 74.7711 205.875 74.0413 205.346 73.0002C204.141 70.6513 206.198 66.1796 207.857 62.5896C208.717 60.7187 209.532 58.9552 209.951 57.4177C210.866 54.0833 210.799 50.3229 210.74 46.6885C210.71 45.0176 210.677 43.3727 210.755 41.8426C210.984 37.2486 210.888 32.6101 210.795 28.1199C210.747 25.834 210.703 23.5481 210.695 21.2585C210.688 17.7945 210.821 14.3268 210.955 10.848C211.11 6.82453 211.27 2.65657 211.207 -1.4632Z" fill="white"/>
<path d="M270.345 -3.00004C269.556 -2.49989 268.782 -1.98864 268.063 -1.4181C264.421 1.45685 261.81 5.89154 260.713 11.0635C260.02 14.3349 259.576 17.6766 259.146 20.9109C258.735 24.0304 258.305 27.2536 257.664 30.2916L257.227 32.3996C256.638 35.2672 256.078 37.9791 255.252 40.7355C253.881 45.2924 250.236 49.1788 246.586 49.9827C244.082 50.5236 241.77 49.6048 239.673 47.2411C237.239 44.4848 236.546 40.5725 236.217 37.4715C235.931 34.7781 235.968 32.0143 236.005 29.0912C236.08 23.4747 236.15 17.6692 233.812 12.275C232.219 8.60717 230.474 5.18761 228.785 1.8792C228.077 0.489887 227.369 -0.88459 226.691 -2.25908L223.372 -0.61784C224.065 0.771469 224.772 2.16077 225.487 3.5649C227.151 6.82145 228.87 10.1854 230.415 13.7495C232.441 18.4139 232.371 23.5747 232.304 29.043C232.264 31.9439 232.226 34.9522 232.534 37.8605C232.919 41.5061 233.768 46.1445 236.898 49.6901C240.696 53.9839 244.697 54.1877 247.379 53.5986C252.344 52.5094 257.038 47.6561 258.798 41.7987C259.676 38.8868 260.276 35.9636 260.857 33.1406L261.291 31.0547C261.961 27.876 262.399 24.5787 262.821 21.3963C263.243 18.2323 263.677 14.9573 264.34 11.8267C265.255 7.49945 267.393 3.82796 270.36 1.4865C270.979 0.997467 271.646 0.556576 272.324 0.13052L270.345 -3.00004Z" fill="white"/>
<path d="M241.284 -1.6893L237.616 -1.17433C238.209 3.04918 239.227 6.02785 240.813 8.20629C242.547 10.5848 246.27 12.0816 249.62 11.8185C252.276 11.5925 254.31 10.3329 255.336 8.26186C256.37 6.19457 256.681 3.08994 256.907 0.818877L257.003 -0.114736C257.048 -0.500038 257.074 -0.896461 257.096 -1.28547L253.402 -1.55591C253.376 -1.19284 253.354 -0.852003 253.321 -0.514863L253.221 0.452103C253.035 2.32304 252.75 5.15351 252.024 6.60951C251.472 7.72466 250.246 8.0507 249.312 8.1285C247.219 8.31375 244.796 7.38383 243.814 6.03156C242.591 4.35328 241.791 1.90068 241.284 -1.6893Z" fill="white"/>
</g>
</svg>
