<svg width="350" height="423" viewBox="0 0 350 423" fill="none" xmlns="http://www.w3.org/2000/svg">
<g opacity="0.6">
<path d="M-72 1V422.598H349.176L-72 1ZM-55.03 18.1526L325.165 422.237L-71.6391 398.584L-55.03 18.1526Z" stroke="white" stroke-width="0.25" stroke-miterlimit="10" stroke-linecap="square"/>
<path d="M-38.6031 35.8486L-70.3764 374.571L301.154 420.432L-38.6031 35.8486ZM-22.8971 54.0847L277.324 417.182L-67.8491 350.557L-22.8971 54.0847Z" stroke="white" stroke-width="0.25" stroke-miterlimit="10" stroke-linecap="square"/>
<path d="M-7.73218 72.6829L-63.8768 326.905L253.856 412.128L-7.73218 72.6829ZM6.89097 92.0021L230.567 405.447L-58.0997 303.433L6.89097 92.0021Z" stroke="white" stroke-width="0.25" stroke-miterlimit="10" stroke-linecap="square"/>
<path d="M20.6108 111.68L-50.5179 280.5L208.001 396.959L20.6108 111.68ZM33.6091 131.903L186.157 386.667L-40.5886 258.653L33.6091 131.903Z" stroke="white" stroke-width="0.25" stroke-miterlimit="10" stroke-linecap="square"/>
<path d="M45.7031 152.667L-27.5919 238.431L165.575 374.209L45.7031 152.667ZM57.0764 174.153L146.258 359.944L-10.8024 221.097L57.0764 174.153Z" stroke="white" stroke-width="0.25" stroke-miterlimit="10" stroke-linecap="square"/>
<path d="M67.1846 196L9.95686 209.181L128.745 343.334L67.1846 196ZM76.0307 218.209L113.4 324.917L33.7867 206.654L76.0307 218.209Z" stroke="white" stroke-width="0.25" stroke-miterlimit="10" stroke-linecap="square"/>
<path d="M83.6153 241.14L55.8137 215.682L100.585 304.515L83.6153 241.14Z" stroke="white" stroke-width="0.25" stroke-miterlimit="10" stroke-linecap="square"/>
</g>
</svg>
